<svg version="1.1" id="Capa_1" xmlns="http://www.w3.org/2000/svg" x="0" y="0" viewBox="0 0 1080 1080" style="enable-background:new 0 0 1080 1080" xml:space="preserve"><style>.st0{fill:#fff}</style><path class="st0" d="M288 663.6h17.2v60.8H288v-60.8zM378.7 663.6v60.8h-14.1L337.8 692v32.4H321v-60.8h14.1l26.8 32.4v-32.4h16.8zM390.1 718.9l5.6-12.7c5.4 3.6 13 6 20 6 7.1 0 9.9-2 9.9-4.9 0-9.6-34.5-2.6-34.5-25.2 0-10.8 8.9-19.7 26.9-19.7 7.9 0 16.1 1.8 22 5.3l-5.3 12.8c-5.8-3.1-11.5-4.7-16.8-4.7-7.2 0-9.8 2.4-9.8 5.5 0 9.3 34.5 2.3 34.5 24.7 0 10.6-8.9 19.6-26.9 19.6-10-.1-19.9-2.7-25.6-6.7zM466 677.2h-18.7v-13.6h54.4v13.6h-18.6v47.1H466v-47.1zM511.7 663.6h17.2v60.8h-17.2v-60.8zM557.5 677.2h-18.7v-13.6h54.4v13.6h-18.6v47.1h-17.2v-47.1zM601.7 697.3v-33.7h17.2v33.2c0 10.4 4.3 14.6 11.5 14.6 7.1 0 11.5-4.2 11.5-14.6v-33.2h16.9v33.7c0 18.1-10.6 28.3-28.6 28.3-17.9-.1-28.5-10.2-28.5-28.3zM685.9 677.2h-18.7v-13.6h54.4v13.6H703v47.1h-17.2v-47.1zM727.6 694c0-18.2 14.3-31.6 33.8-31.6 19.4 0 33.8 13.4 33.8 31.6 0 18.2-14.3 31.6-33.8 31.6-19.5-.1-33.8-13.4-33.8-31.6zm50.1 0c0-10.5-7.2-17.4-16.4-17.4s-16.4 6.9-16.4 17.4c0 10.5 7.2 17.4 16.4 17.4 9.2-.1 16.4-6.9 16.4-17.4zM285.7 778.9c0-16.2 12.3-28 29-28 8.4 0 15.8 2.9 20.8 8.5l-5.1 4.9c-4.2-4.5-9.4-6.5-15.4-6.5-12.3 0-21.5 8.9-21.5 21s9.1 21 21.5 21c6 0 11.2-2.1 15.4-6.6l5.1 4.9c-5 5.6-12.3 8.6-20.9 8.6-16.6.1-28.9-11.7-28.9-27.8zM380.2 792.5h-29.1l-6 13.7h-8l24.8-54.7h7.7l24.8 54.7h-8.2l-6-13.7zm-2.8-6.2-11.8-26.8-11.8 26.8h23.6zM449.5 751.5v54.7h-6.4l-32.8-40.8v40.8h-7.8v-54.7h6.4l32.8 40.8v-40.8h7.8zM500.8 792.5h-29.1l-6 13.7h-8l24.8-54.7h7.7l24.8 54.7h-8.2l-6-13.7zm-2.7-6.2-11.8-26.8-11.8 26.8h23.6zM559.7 806.2l-11.8-16.8c-1.1.1-2.3.2-3.4.2H531v16.6h-7.8v-54.7h21.3c14.2 0 22.8 7.2 22.8 19.1 0 8.4-4.4 14.5-12 17.3l13 18.4h-8.6zm-.2-35.6c0-7.8-5.2-12.3-15.2-12.3H531v24.6h13.3c9.9 0 15.2-4.5 15.2-12.3zM579.9 751.5h7.8v54.7h-7.8v-54.7zM599.7 778.9c0-16 12.3-28 29.1-28 16.6 0 29 11.9 29 28s-12.3 28-29 28c-16.8-.1-29.1-12-29.1-28zm50.3 0c0-12.1-9.1-21-21.2-21-12.3 0-21.3 8.9-21.3 21s9.1 21 21.3 21c12.1 0 21.2-8.9 21.2-21zM690.8 751.5h23c17.6 0 29.5 11.1 29.5 27.3 0 16.3-12 27.3-29.5 27.3h-23v-54.6zm22.6 47.9c13.5 0 22.2-8.3 22.2-20.5 0-12.3-8.7-20.5-22.2-20.5h-14.8v41.1h14.8zM795 799.4v6.8h-39.7v-54.7h38.6v6.8h-30.8v16.8h27.4v6.6h-27.4v17.7H795zM284.9 868.1c0-18.5 14.1-31.6 33.4-31.6 11.2 0 20.2 4.1 26.1 11.5l-10.9 9.9c-3.8-4.6-8.5-7.1-14.3-7.1-10 0-16.9 6.9-16.9 17.4 0 10.4 6.9 17.4 16.9 17.4 5.8 0 10.5-2.5 14.3-7.1l10.9 9.9c-5.9 7.4-14.9 11.5-26.1 11.5-19.2-.2-33.4-13.3-33.4-31.8zM349.4 868.1c0-18.2 14.3-31.6 33.8-31.6 19.4 0 33.8 13.4 33.8 31.6 0 18.2-14.3 31.6-33.8 31.6-19.5 0-33.8-13.4-33.8-31.6zm50.2 0c0-10.5-7.2-17.4-16.4-17.4s-16.4 6.9-16.4 17.4 7.2 17.4 16.4 17.4 16.4-6.9 16.4-17.4zM467.5 886.7h-25.7l-4.8 11.8h-17.5l26.8-60.8h16.9l26.9 60.8h-17.9l-4.7-11.8zm-5-12.7-7.8-19.4-7.8 19.4h15.6zM492.8 868.1c0-18.5 14.1-31.6 33.4-31.6 11.2 0 20.2 4.1 26.1 11.5l-10.9 9.9c-3.8-4.6-8.5-7.1-14.3-7.1-10 0-16.9 6.9-16.9 17.4 0 10.4 6.9 17.4 16.9 17.4 5.8 0 10.5-2.5 14.3-7.1l10.9 9.9c-5.9 7.4-14.9 11.5-26.1 11.5-19.3-.2-33.4-13.3-33.4-31.8zM619.5 837.7v60.8h-17.2v-23.7h-23.4v23.7h-17.2v-60.8h17.2v22.8h23.4v-22.8h17.2zM633.4 837.7h17.2v60.8h-17.2v-60.8zM722.4 837.7v60.8h-14.1l-26.8-32.4v32.4h-16.8v-60.8h14.1l26.8 32.4v-32.4h16.8zM777 866.8h15.2V892c-7 5-16.7 7.7-25.5 7.7-19.4 0-33.5-13.1-33.5-31.6s14.1-31.6 33.8-31.6c11.4 0 20.6 3.9 26.6 11.1l-10.9 9.9c-4.2-4.6-8.9-6.8-14.8-6.8-10.4 0-17.4 6.9-17.4 17.4 0 10.2 6.9 17.4 17.2 17.4 3.2 0 6.2-.6 9.3-2v-16.7zM666.1 221.8c-65-54.8-193.2-64.2-276.1 26.6-75.8 82.9-69.5 214.3 15.4 290.7 88.3 79.5 208 58 259.8 11.4-92.4 35.6-172.6-2.4-214.1-58.1-45.5-61-47-144.3-3.8-207.1 47.9-69.5 122-91 218.8-63.5z"/><path class="st0" d="M666.1 221.8c-96.9-27.5-171-6-218.8 63.4-43.2 62.8-41.7 146 3.8 207.1 41.5 55.7 121.7 93.8 214.1 58.1-51.7 46.6-171.5 68.1-259.8-11.4-84.8-76.4-91.1-207.7-15.4-290.7 83-90.7 211.1-81.3 276.1-26.5z"/><path class="st0" d="M741.7 303.6c-21 0-41.2.2-61.3-.2-2.5-.1-5.5-2.8-7.4-5.1-43.2-50.3-96.5-66.1-160.2-47.2-.8.2-1.7-.1-2.6-.2 59-50.6 184.9-37.9 231.5 52.7zM742.7 468.5c-52.8 93.5-173.9 101.4-229.6 55.8 19.5 1 42.5 4.6 65.1 2.9 37.4-2.9 67.4-21.8 92.2-49.7 4.1-4.6 11.7-8.2 17.9-8.6 17.4-1.2 35.1-.4 54.4-.4zM537.8 317.6c-.1-3.7-.6-7-1.6-9.7-1-2.7-2.1-5-3.3-6.8-1.3-1.8-2.9-3.6-4.9-5.5v-1.2h66.9v1.2c-2 1.8-3.6 3.6-4.9 5.5-1.3 1.8-2.4 4.1-3.4 6.8s-1.5 6-1.5 9.7v135.3c0 3.7.5 7 1.5 9.7 1 2.7 2.1 5 3.4 6.8 1.3 1.8 2.9 3.6 4.9 5.5v1.2H528v-1.2c2-1.8 3.6-3.6 4.9-5.4 1.3-1.8 2.4-4 3.3-6.7 1-2.7 1.5-5.8 1.6-9.5V317.6z"/></svg>